<mxfile host="app.diagrams.net" agent="Mozilla/5.0 (X11; Linux x86_64; rv:141.0) Gecko/20100101 Firefox/141.0" version="28.1.0">
  <diagram name="Page-1" id="Mt_HUXR5O6kLTx0qWId0">
    <mxGraphModel dx="1204" dy="1681" grid="1" gridSize="10" guides="1" tooltips="1" connect="1" arrows="1" fold="1" page="1" pageScale="1" pageWidth="827" pageHeight="1169" background="none" math="0" shadow="0">
      <root>
        <mxCell id="0" />
        <mxCell id="1" parent="0" />
        <mxCell id="9bHcRbHwBZqyY6m2YPGw-12" value="" style="endArrow=none;html=1;rounded=0;entryX=0;entryY=1;entryDx=0;entryDy=0;exitX=0.5;exitY=1;exitDx=0;exitDy=0;dashed=1;" edge="1" parent="1">
          <mxGeometry width="50" height="50" relative="1" as="geometry">
            <mxPoint x="300" y="380" as="sourcePoint" />
            <mxPoint x="300" y="70" as="targetPoint" />
          </mxGeometry>
        </mxCell>
        <mxCell id="j2amn9IV4w0OwR7YDSab-1" value="&lt;font data-font-src=&quot;https://fonts.googleapis.com/css?family=Inter&quot;&gt;Feb.&lt;/font&gt;" style="rounded=0;whiteSpace=wrap;html=1;fontFamily=Inter;fontSource=https%3A%2F%2Ffonts.googleapis.com%2Fcss%3Ffamily%3DInter;fontSize=31;fillColor=#cce5ff;strokeColor=#000000;strokeWidth=2;" parent="1" vertex="1">
          <mxGeometry x="120" y="-10" width="120" height="50" as="geometry" />
        </mxCell>
        <mxCell id="j2amn9IV4w0OwR7YDSab-2" value="&lt;p&gt;&lt;font face=&quot;Inter&quot; data-font-src=&quot;https://fonts.googleapis.com/css?family=Inter&quot;&gt;Marzo&lt;/font&gt;&lt;/p&gt;" style="rounded=0;whiteSpace=wrap;html=1;fontSize=32;fillColor=#cce5ff;strokeColor=#000000;strokeWidth=2;" parent="1" vertex="1">
          <mxGeometry x="240" y="-10" width="240" height="50" as="geometry" />
        </mxCell>
        <mxCell id="j2amn9IV4w0OwR7YDSab-3" value="&lt;p&gt;&lt;font face=&quot;Inter&quot; data-font-src=&quot;https://fonts.googleapis.com/css?family=Inter&quot;&gt;Abril&lt;/font&gt;&lt;/p&gt;" style="rounded=0;whiteSpace=wrap;html=1;fontSize=32;fillColor=#cce5ff;strokeColor=#000000;strokeWidth=2;" parent="1" vertex="1">
          <mxGeometry x="480" y="-10" width="240" height="50" as="geometry" />
        </mxCell>
        <mxCell id="3ni7MIBzhpr4WXZ2Zg2e-1" value="&lt;font face=&quot;Inter&quot; data-font-src=&quot;https://fonts.googleapis.com/css?family=Inter&quot;&gt;Mayo&lt;/font&gt;" style="rounded=0;whiteSpace=wrap;html=1;fontSize=32;fillColor=#cce5ff;strokeColor=#000000;strokeWidth=2;" parent="1" vertex="1">
          <mxGeometry x="720" y="-10" width="240" height="50" as="geometry" />
        </mxCell>
        <mxCell id="3ni7MIBzhpr4WXZ2Zg2e-2" value="&lt;p&gt;&lt;font face=&quot;Inter&quot; data-font-src=&quot;https://fonts.googleapis.com/css?family=Inter&quot;&gt;Ju.&lt;/font&gt;&lt;/p&gt;" style="rounded=0;whiteSpace=wrap;html=1;fontSize=32;fillColor=#cce5ff;strokeColor=#000000;strokeWidth=2;" parent="1" vertex="1">
          <mxGeometry x="960" y="-10" width="60" height="50" as="geometry" />
        </mxCell>
        <mxCell id="3ni7MIBzhpr4WXZ2Zg2e-3" value="" style="rounded=0;whiteSpace=wrap;html=1;fillColor=none;strokeWidth=2;" parent="1" vertex="1">
          <mxGeometry x="120" y="40" width="120" height="340" as="geometry" />
        </mxCell>
        <mxCell id="3ni7MIBzhpr4WXZ2Zg2e-11" value="&lt;font face=&quot;Inter&quot;&gt;S1&lt;/font&gt;" style="rounded=0;whiteSpace=wrap;html=1;strokeWidth=2;fontSize=18;" parent="1" vertex="1">
          <mxGeometry x="120" y="40" width="60" height="30" as="geometry" />
        </mxCell>
        <mxCell id="3ni7MIBzhpr4WXZ2Zg2e-12" value="&lt;font face=&quot;Inter&quot;&gt;S2&lt;/font&gt;" style="rounded=0;whiteSpace=wrap;html=1;strokeWidth=2;fontSize=18;" parent="1" vertex="1">
          <mxGeometry x="180" y="40" width="60" height="30" as="geometry" />
        </mxCell>
        <mxCell id="3ni7MIBzhpr4WXZ2Zg2e-13" value="" style="rounded=0;whiteSpace=wrap;html=1;fillColor=none;strokeWidth=2;" parent="1" vertex="1">
          <mxGeometry x="240" y="40" width="240" height="340" as="geometry" />
        </mxCell>
        <mxCell id="3ni7MIBzhpr4WXZ2Zg2e-14" value="&lt;font face=&quot;Inter&quot;&gt;S3&lt;/font&gt;" style="rounded=0;whiteSpace=wrap;html=1;strokeWidth=2;fontSize=18;" parent="1" vertex="1">
          <mxGeometry x="240" y="40" width="60" height="30" as="geometry" />
        </mxCell>
        <mxCell id="3ni7MIBzhpr4WXZ2Zg2e-15" value="&lt;font face=&quot;Inter&quot;&gt;S5&lt;/font&gt;" style="rounded=0;whiteSpace=wrap;html=1;strokeWidth=2;fontSize=18;" parent="1" vertex="1">
          <mxGeometry x="300" y="40" width="60" height="30" as="geometry" />
        </mxCell>
        <mxCell id="3ni7MIBzhpr4WXZ2Zg2e-16" value="&lt;font face=&quot;Inter&quot;&gt;S5&lt;/font&gt;" style="rounded=0;whiteSpace=wrap;html=1;strokeWidth=2;fontSize=18;" parent="1" vertex="1">
          <mxGeometry x="360" y="40" width="60" height="30" as="geometry" />
        </mxCell>
        <mxCell id="3ni7MIBzhpr4WXZ2Zg2e-17" value="&lt;font face=&quot;Inter&quot;&gt;S6&lt;/font&gt;" style="rounded=0;whiteSpace=wrap;html=1;strokeWidth=2;fontSize=18;" parent="1" vertex="1">
          <mxGeometry x="420" y="40" width="60" height="30" as="geometry" />
        </mxCell>
        <mxCell id="3ni7MIBzhpr4WXZ2Zg2e-18" value="" style="rounded=0;whiteSpace=wrap;html=1;fillColor=none;strokeWidth=2;" parent="1" vertex="1">
          <mxGeometry x="480" y="40" width="240" height="340" as="geometry" />
        </mxCell>
        <mxCell id="3ni7MIBzhpr4WXZ2Zg2e-19" value="" style="rounded=0;whiteSpace=wrap;html=1;fillColor=none;strokeWidth=2;" parent="1" vertex="1">
          <mxGeometry x="720" y="40" width="240" height="340" as="geometry" />
        </mxCell>
        <mxCell id="3ni7MIBzhpr4WXZ2Zg2e-20" value="" style="rounded=0;whiteSpace=wrap;html=1;fillColor=none;strokeWidth=2;" parent="1" vertex="1">
          <mxGeometry x="960" y="40" width="60" height="340" as="geometry" />
        </mxCell>
        <mxCell id="3ni7MIBzhpr4WXZ2Zg2e-21" value="&lt;font face=&quot;Inter&quot;&gt;S7&lt;/font&gt;" style="rounded=0;whiteSpace=wrap;html=1;strokeWidth=2;fontSize=18;" parent="1" vertex="1">
          <mxGeometry x="480" y="40" width="60" height="30" as="geometry" />
        </mxCell>
        <mxCell id="3ni7MIBzhpr4WXZ2Zg2e-22" value="&lt;font face=&quot;Inter&quot;&gt;S8&lt;/font&gt;" style="rounded=0;whiteSpace=wrap;html=1;strokeWidth=2;fontSize=18;" parent="1" vertex="1">
          <mxGeometry x="540" y="40" width="60" height="30" as="geometry" />
        </mxCell>
        <mxCell id="3ni7MIBzhpr4WXZ2Zg2e-23" value="&lt;font face=&quot;Inter&quot;&gt;S9&lt;/font&gt;" style="rounded=0;whiteSpace=wrap;html=1;strokeWidth=2;fontSize=18;" parent="1" vertex="1">
          <mxGeometry x="600" y="40" width="60" height="30" as="geometry" />
        </mxCell>
        <mxCell id="3ni7MIBzhpr4WXZ2Zg2e-24" value="&lt;font face=&quot;Inter&quot;&gt;S10&lt;/font&gt;" style="rounded=0;whiteSpace=wrap;html=1;strokeWidth=2;fontSize=18;" parent="1" vertex="1">
          <mxGeometry x="660" y="40" width="60" height="30" as="geometry" />
        </mxCell>
        <mxCell id="3ni7MIBzhpr4WXZ2Zg2e-25" value="&lt;font face=&quot;Inter&quot;&gt;S11&lt;/font&gt;" style="rounded=0;whiteSpace=wrap;html=1;strokeWidth=2;fontSize=18;" parent="1" vertex="1">
          <mxGeometry x="720" y="40" width="60" height="30" as="geometry" />
        </mxCell>
        <mxCell id="3ni7MIBzhpr4WXZ2Zg2e-26" value="&lt;font face=&quot;Inter&quot;&gt;S12&lt;/font&gt;" style="rounded=0;whiteSpace=wrap;html=1;strokeWidth=2;fontSize=18;" parent="1" vertex="1">
          <mxGeometry x="780" y="40" width="60" height="30" as="geometry" />
        </mxCell>
        <mxCell id="3ni7MIBzhpr4WXZ2Zg2e-27" value="&lt;font face=&quot;Inter&quot;&gt;S13&lt;/font&gt;" style="rounded=0;whiteSpace=wrap;html=1;strokeWidth=2;fontSize=18;" parent="1" vertex="1">
          <mxGeometry x="840" y="40" width="60" height="30" as="geometry" />
        </mxCell>
        <mxCell id="3ni7MIBzhpr4WXZ2Zg2e-28" value="&lt;font face=&quot;Inter&quot;&gt;S14&lt;/font&gt;" style="rounded=0;whiteSpace=wrap;html=1;strokeWidth=2;fontSize=18;" parent="1" vertex="1">
          <mxGeometry x="900" y="40" width="60" height="30" as="geometry" />
        </mxCell>
        <mxCell id="3ni7MIBzhpr4WXZ2Zg2e-29" value="&lt;font face=&quot;Inter&quot;&gt;S15&lt;/font&gt;" style="rounded=0;whiteSpace=wrap;html=1;strokeWidth=2;fontSize=18;" parent="1" vertex="1">
          <mxGeometry x="960" y="40" width="60" height="30" as="geometry" />
        </mxCell>
        <mxCell id="9bHcRbHwBZqyY6m2YPGw-1" value="F1" style="text;html=1;align=center;verticalAlign=middle;whiteSpace=wrap;rounded=0;fontFamily=Inter;fontSource=https%3A%2F%2Ffonts.googleapis.com%2Fcss%3Ffamily%3DInter;fontSize=18;" vertex="1" parent="1">
          <mxGeometry x="80" y="90" width="40" height="30" as="geometry" />
        </mxCell>
        <mxCell id="9bHcRbHwBZqyY6m2YPGw-2" value="F2" style="text;html=1;align=center;verticalAlign=middle;whiteSpace=wrap;rounded=0;fontFamily=Inter;fontSource=https%3A%2F%2Ffonts.googleapis.com%2Fcss%3Ffamily%3DInter;fontSize=18;" vertex="1" parent="1">
          <mxGeometry x="80" y="120" width="40" height="30" as="geometry" />
        </mxCell>
        <mxCell id="9bHcRbHwBZqyY6m2YPGw-3" value="F3" style="text;html=1;align=center;verticalAlign=middle;whiteSpace=wrap;rounded=0;fontFamily=Inter;fontSource=https%3A%2F%2Ffonts.googleapis.com%2Fcss%3Ffamily%3DInter;fontSize=18;" vertex="1" parent="1">
          <mxGeometry x="80" y="150" width="40" height="30" as="geometry" />
        </mxCell>
        <mxCell id="9bHcRbHwBZqyY6m2YPGw-4" value="F4" style="text;html=1;align=center;verticalAlign=middle;whiteSpace=wrap;rounded=0;fontFamily=Inter;fontSource=https%3A%2F%2Ffonts.googleapis.com%2Fcss%3Ffamily%3DInter;fontSize=18;" vertex="1" parent="1">
          <mxGeometry x="80" y="180" width="40" height="30" as="geometry" />
        </mxCell>
        <mxCell id="9bHcRbHwBZqyY6m2YPGw-5" value="F5" style="text;html=1;align=center;verticalAlign=middle;whiteSpace=wrap;rounded=0;fontFamily=Inter;fontSource=https%3A%2F%2Ffonts.googleapis.com%2Fcss%3Ffamily%3DInter;fontSize=18;" vertex="1" parent="1">
          <mxGeometry x="80" y="210" width="40" height="30" as="geometry" />
        </mxCell>
        <mxCell id="9bHcRbHwBZqyY6m2YPGw-6" value="F6" style="text;html=1;align=center;verticalAlign=middle;whiteSpace=wrap;rounded=0;fontFamily=Inter;fontSource=https%3A%2F%2Ffonts.googleapis.com%2Fcss%3Ffamily%3DInter;fontSize=18;" vertex="1" parent="1">
          <mxGeometry x="80" y="240" width="40" height="30" as="geometry" />
        </mxCell>
        <mxCell id="9bHcRbHwBZqyY6m2YPGw-7" value="F7" style="text;html=1;align=center;verticalAlign=middle;whiteSpace=wrap;rounded=0;fontFamily=Inter;fontSource=https%3A%2F%2Ffonts.googleapis.com%2Fcss%3Ffamily%3DInter;fontSize=18;" vertex="1" parent="1">
          <mxGeometry x="80" y="270" width="40" height="30" as="geometry" />
        </mxCell>
        <mxCell id="9bHcRbHwBZqyY6m2YPGw-8" value="F8" style="text;html=1;align=center;verticalAlign=middle;whiteSpace=wrap;rounded=0;fontFamily=Inter;fontSource=https%3A%2F%2Ffonts.googleapis.com%2Fcss%3Ffamily%3DInter;fontSize=18;" vertex="1" parent="1">
          <mxGeometry x="80" y="300" width="40" height="30" as="geometry" />
        </mxCell>
        <mxCell id="9bHcRbHwBZqyY6m2YPGw-9" value="F9" style="text;html=1;align=center;verticalAlign=middle;whiteSpace=wrap;rounded=0;fontFamily=Inter;fontSource=https%3A%2F%2Ffonts.googleapis.com%2Fcss%3Ffamily%3DInter;fontSize=18;" vertex="1" parent="1">
          <mxGeometry x="80" y="330" width="40" height="30" as="geometry" />
        </mxCell>
        <mxCell id="9bHcRbHwBZqyY6m2YPGw-11" value="" style="endArrow=none;html=1;rounded=0;dashed=1;" edge="1" parent="1">
          <mxGeometry width="50" height="50" relative="1" as="geometry">
            <mxPoint x="179.64" y="70" as="sourcePoint" />
            <mxPoint x="180" y="380" as="targetPoint" />
          </mxGeometry>
        </mxCell>
        <mxCell id="3ni7MIBzhpr4WXZ2Zg2e-31" value="" style="rounded=0;whiteSpace=wrap;html=1;strokeWidth=2;fillColor=#dae8fc;strokeColor=#6c8ebf;fontSize=18;" parent="1" vertex="1">
          <mxGeometry x="120" y="90" width="60" height="30" as="geometry" />
        </mxCell>
        <mxCell id="9bHcRbHwBZqyY6m2YPGw-13" value="" style="endArrow=none;html=1;rounded=0;entryX=0;entryY=1;entryDx=0;entryDy=0;exitX=0.5;exitY=1;exitDx=0;exitDy=0;dashed=1;" edge="1" parent="1">
          <mxGeometry width="50" height="50" relative="1" as="geometry">
            <mxPoint x="360" y="380" as="sourcePoint" />
            <mxPoint x="360" y="70" as="targetPoint" />
          </mxGeometry>
        </mxCell>
        <mxCell id="9bHcRbHwBZqyY6m2YPGw-14" value="" style="endArrow=none;html=1;rounded=0;entryX=0;entryY=1;entryDx=0;entryDy=0;exitX=0.5;exitY=1;exitDx=0;exitDy=0;dashed=1;" edge="1" parent="1">
          <mxGeometry width="50" height="50" relative="1" as="geometry">
            <mxPoint x="419.47" y="380" as="sourcePoint" />
            <mxPoint x="419.47" y="70" as="targetPoint" />
          </mxGeometry>
        </mxCell>
        <mxCell id="9bHcRbHwBZqyY6m2YPGw-15" value="" style="endArrow=none;html=1;rounded=0;entryX=0;entryY=1;entryDx=0;entryDy=0;exitX=0.5;exitY=1;exitDx=0;exitDy=0;dashed=1;" edge="1" parent="1">
          <mxGeometry width="50" height="50" relative="1" as="geometry">
            <mxPoint x="540" y="380" as="sourcePoint" />
            <mxPoint x="540" y="70" as="targetPoint" />
          </mxGeometry>
        </mxCell>
        <mxCell id="9bHcRbHwBZqyY6m2YPGw-16" value="" style="endArrow=none;html=1;rounded=0;entryX=0;entryY=1;entryDx=0;entryDy=0;exitX=0.5;exitY=1;exitDx=0;exitDy=0;dashed=1;" edge="1" parent="1">
          <mxGeometry width="50" height="50" relative="1" as="geometry">
            <mxPoint x="600" y="380" as="sourcePoint" />
            <mxPoint x="600" y="70" as="targetPoint" />
          </mxGeometry>
        </mxCell>
        <mxCell id="9bHcRbHwBZqyY6m2YPGw-17" value="" style="endArrow=none;html=1;rounded=0;entryX=0;entryY=1;entryDx=0;entryDy=0;exitX=0.5;exitY=1;exitDx=0;exitDy=0;dashed=1;" edge="1" parent="1">
          <mxGeometry width="50" height="50" relative="1" as="geometry">
            <mxPoint x="660" y="380" as="sourcePoint" />
            <mxPoint x="660" y="70" as="targetPoint" />
          </mxGeometry>
        </mxCell>
        <mxCell id="9bHcRbHwBZqyY6m2YPGw-18" value="" style="endArrow=none;html=1;rounded=0;entryX=0;entryY=1;entryDx=0;entryDy=0;exitX=0.5;exitY=1;exitDx=0;exitDy=0;dashed=1;" edge="1" parent="1">
          <mxGeometry width="50" height="50" relative="1" as="geometry">
            <mxPoint x="779.47" y="380" as="sourcePoint" />
            <mxPoint x="779.47" y="70" as="targetPoint" />
          </mxGeometry>
        </mxCell>
        <mxCell id="9bHcRbHwBZqyY6m2YPGw-19" value="" style="endArrow=none;html=1;rounded=0;entryX=0;entryY=1;entryDx=0;entryDy=0;exitX=0.5;exitY=1;exitDx=0;exitDy=0;dashed=1;" edge="1" parent="1">
          <mxGeometry width="50" height="50" relative="1" as="geometry">
            <mxPoint x="840" y="380" as="sourcePoint" />
            <mxPoint x="840" y="70" as="targetPoint" />
          </mxGeometry>
        </mxCell>
        <mxCell id="9bHcRbHwBZqyY6m2YPGw-20" value="" style="endArrow=none;html=1;rounded=0;entryX=0;entryY=1;entryDx=0;entryDy=0;exitX=0.5;exitY=1;exitDx=0;exitDy=0;dashed=1;" edge="1" parent="1">
          <mxGeometry width="50" height="50" relative="1" as="geometry">
            <mxPoint x="900" y="380" as="sourcePoint" />
            <mxPoint x="900" y="70" as="targetPoint" />
          </mxGeometry>
        </mxCell>
        <mxCell id="3ni7MIBzhpr4WXZ2Zg2e-32" value="" style="rounded=0;whiteSpace=wrap;html=1;strokeWidth=2;fillColor=#d5e8d4;strokeColor=#82b366;fontSize=18;" parent="1" vertex="1">
          <mxGeometry x="180" y="120" width="90" height="30" as="geometry" />
        </mxCell>
        <mxCell id="3ni7MIBzhpr4WXZ2Zg2e-33" value="" style="rounded=0;whiteSpace=wrap;html=1;strokeWidth=2;fillColor=#d5e8d4;strokeColor=#82b366;fontSize=18;" parent="1" vertex="1">
          <mxGeometry x="480" y="210" width="60" height="30" as="geometry" />
        </mxCell>
        <mxCell id="3ni7MIBzhpr4WXZ2Zg2e-34" value="" style="rounded=0;whiteSpace=wrap;html=1;strokeWidth=2;fillColor=#f8cecc;strokeColor=#b85450;fontSize=18;" parent="1" vertex="1">
          <mxGeometry x="540" y="240" width="240" height="30" as="geometry" />
        </mxCell>
        <mxCell id="3ni7MIBzhpr4WXZ2Zg2e-35" value="" style="rounded=0;whiteSpace=wrap;html=1;strokeWidth=2;fillColor=#f8cecc;strokeColor=#b85450;fontSize=18;" parent="1" vertex="1">
          <mxGeometry x="270" y="150" width="180" height="30" as="geometry" />
        </mxCell>
        <mxCell id="3ni7MIBzhpr4WXZ2Zg2e-36" value="" style="rounded=0;whiteSpace=wrap;html=1;strokeWidth=2;fillColor=#ffe6cc;strokeColor=#d79b00;fontSize=18;" parent="1" vertex="1">
          <mxGeometry x="450" y="180" width="30" height="30" as="geometry" />
        </mxCell>
        <mxCell id="3ni7MIBzhpr4WXZ2Zg2e-37" value="" style="rounded=0;whiteSpace=wrap;html=1;strokeWidth=2;fillColor=#ffe6cc;strokeColor=#d79b00;fontSize=18;" parent="1" vertex="1">
          <mxGeometry x="780" y="270" width="60" height="30" as="geometry" />
        </mxCell>
        <mxCell id="3ni7MIBzhpr4WXZ2Zg2e-39" value="" style="rounded=0;whiteSpace=wrap;html=1;strokeWidth=2;fillColor=#e1d5e7;strokeColor=#9673a6;verticalAlign=middle;fontSize=18;" parent="1" vertex="1">
          <mxGeometry x="840" y="300" width="180" height="30" as="geometry" />
        </mxCell>
      </root>
    </mxGraphModel>
  </diagram>
</mxfile>
